# xmcd CD database file
#
# Track frame offsets:
#        150
#        10410
#        24147
#        35592
#        45055
#        66097
#        86082
#        106817
#        125962
#        149802
#        164160
#        185810
#        211870
#        226580
#
# Disc length: 3456 seconds
#
# Revision: 0
# Processed by: cddbd v1.5.2PL0 Copyright (c) Steve Scherf et al.
# Submitted via: CUERipper 2.1.2a
#
DISCID=c00d7e0e
DTITLE=Various Artist - Telarc Classical SACD Sampler
DYEAR=2006
DGENRE=Classical
TTITLE0=Purcell - W. Kuhlman - Empire Brass Quintet - Rondeau From Abdelazer
TTITLE1=Orff - D. Runnicles - Atlanta Symphony Orchestra And Chorus - Carmina Burana (Excerpts) - In Taberna - In Taberna Quando Sumus
TTITLE2=Orff - D. Runnicles - Atlanta Symphony Orchestra And Chorus - Carmina Burana (Excerpts) - Cour D'Amours - Tempus Est Iocundum
TTITLE3=Händel - M. Pearlman - Boston Baroque - Suite In F Major - Hornpipe From Water Music
TTITLE4=Martinu - P. Järvi - Cincinnati Symphony Orchestra - 3. Poco Allegro From Symphony No. 2
TTITLE5=Debussy - J. López-Cobos - Cincinnati Symphony Orchestra - Le Martin D'Un Jour De Fete (Holiday Morning) From Iberia
TTITLE6=Ravel - P. Järvi - Cincinnati Symphony Orchestra - Danse Générale (General Dance) From Daphnis Et Chloé Suite No. 2
TTITLE7=Rodrigo, York - Los Angeles Guitar Quartet - En Aranjuez Con Tu Amor
TTITLE8=Prokofiev - P. Järvi - Cincinnati Symphony Orchestra - Montagues And Capulets From Romer And Juliet 
TTITLE9=Traditional - Mormon Tabernacle Choir - Praise To The Lord, The Almighty
TTITLE10=Berlioz - P. Järvi - Cincinnati Symphony Orchestra - Marche Au Supplice (March To The Scaffold) From Symphonie Fantastique
TTITLE11=Higdon - R. Spano - Atlanta Symphony Orchestra And Chorus - Movement IV - From Concerto For Orchestra
TTITLE12=Nielsen - P. Järvi - Cincinnati Symphony Orchestra - 4. Allegro - Presto From Symphony No. 5
TTITLE13=Vaughan Williams - R. Spano - Atlanta Symphony Orchestra And Chorus - Finale - The Explorers (Excerpt) From A Sea Symphony
EXTD=
EXTT0=
EXTT1=
EXTT2=
EXTT3=
EXTT4=
EXTT5=
EXTT6=
EXTT7=
EXTT8=
EXTT9=
EXTT10=
EXTT11=
EXTT12=
EXTT13=
PLAYORDER=
